/vscmnt/brussel_pixiu_data/_data_brussel/112/vsc11236/PredSimResults/SUBJ04mtu3D/worker1.mot
version=1
nRows=6
nColumns=50
inDegrees=yes
endheader
                time	         pelvis_tilt	         pelvis_list	     pelvis_rotation	           pelvis_tx	           pelvis_ty	           pelvis_tz	       hip_flexion_r	     hip_adduction_r	      hip_rotation_r	        knee_angle_r	       ankle_angle_r	         mtp_angle_r	       hip_flexion_l	     hip_adduction_l	      hip_rotation_l	        knee_angle_l	       ankle_angle_l	         mtp_angle_l	    lumbar_extension	      lumbar_bending	     lumbar_rotation	 ercspn_r/activation	 intobl_r/activation	 extobl_r/activation	    abd_r/activation	    add_r/activation	hamstrings_r/activation	bifemsh_r/activation	glut_max_r/activation	iliopsoas_r/activation	rect_fem_r/activation	  vasti_r/activation	gastroc_r/activation	 soleus_r/activation	tib_ant_r/activation	 ercspn_l/activation	 intobl_l/activation	 extobl_l/activation	    abd_l/activation	    add_l/activation	hamstrings_l/activation	bifemsh_l/activation	glut_max_l/activation	iliopsoas_l/activation	rect_fem_l/activation	  vasti_l/activation	gastroc_l/activation	 soleus_l/activation	tib_ant_l/activation	
          1.34401683	         -5.24104337	         -4.72888257	         11.89287219	          1.26337582	          0.88221282	         -0.01887213	         24.31238025	          0.58899508	         -4.43934761	          2.28359961	          5.20244845	          0.22573904	         -9.62982485	         -4.61157623	         13.42325871	         -9.28515529	         11.60016342	         25.33447576	         -3.46073600	          2.11649489	         -1.48305936	          0.08497955	          0.16396512	          0.01774869	          0.02383015	          0.12247467	          0.01872521	          0.01000011	          0.01000002	          0.05398816	          0.01224001	          0.01776421	          0.01000000	          0.01000000	          0.26187604	          0.04786552	          0.01000000	          0.01000000	          0.07343495	          0.01088870	          0.01640573	          0.12340286	          0.05195527	          0.29015329	          0.01000004	          0.01000000	          0.27752413	          0.26905209	          0.01224008	
          1.35745700	         -5.34660301	         -4.61113177	         11.73365880	          1.27869255	          0.88048787	         -0.01788568	         23.85664744	          0.85367597	         -3.21868805	          1.62613834	          4.86180576	          0.21038346	         -9.81515596	         -4.45801271	         12.61382141	        -10.71523026	         11.21106558	         27.05202987	         -3.16950204	          2.40423439	         -1.74670699	          0.06942769	          0.17865922	          0.01450053	          0.01946904	          0.10006083	          0.02410965	          0.01000909	          0.01581057	          0.04410787	          0.01000006	          0.01451322	          0.01498234	          0.01351193	          0.28758013	          0.06927633	          0.01000000	          0.01000000	          0.05999574	          0.02612804	          0.01340345	          0.10081911	          0.04244702	          0.25749731	          0.01000009	          0.01000001	          0.25249378	          0.25708551	          0.01000004	
          1.37089717	         -5.43618147	         -4.49609301	         11.49969402	          1.29428364	          0.87902511	         -0.01680096	         23.27012653	          1.12773516	         -2.05743511	          1.16319999	          4.34133040	          0.20763238	         -9.91287440	         -4.28792543	         11.76108023	        -12.36100186	         10.66623824	         28.78678051	         -2.87164587	          2.71907949	         -1.99973362	          0.07053670	          0.16439139	          0.01184681	          0.04808136	          0.08174888	          0.02949909	          0.06239712	          0.02694352	          0.03603576	          0.01000001	          0.01185718	          0.01224045	          0.01103913	          0.32048598	          0.09508949	          0.00999999	          0.01000000	          0.04901601	          0.02936816	          0.01095073	          0.08236837	          0.03467886	          0.22236057	          0.01000079	          0.01000005	          0.21335744	          0.23781958	          0.00999999	
          1.38433734	         -5.51038729	         -4.38165149	         11.18886589	          1.30997112	          0.87802042	         -0.01562237	         22.60975015	          1.42191853	         -0.97490166	          0.81325822	          3.80723842	          0.18991654	         -9.87290956	         -4.09168206	         10.84875510	        -14.27370015	          9.91799076	         30.49038411	         -2.58342632	          3.05870088	         -2.24086508	          0.06820384	          0.13430641	          0.01000000	          0.07180483	          0.06678823	          0.03321959	          0.05097797	          0.03749256	          0.02944091	          0.01000002	          0.01296521	          0.01000037	          0.01000003	          0.34526839	          0.11588198	          0.00999999	          0.01000000	          0.04004567	          0.03121072	          0.01030399	          0.06729428	          0.02833234	          0.19129829	          0.01000016	          0.01000005	          0.17431124	          0.20697534	          0.00999999	
          1.39777750	         -5.56953205	         -4.26576856	         10.80558602	          1.32563339	          0.87759075	         -0.01436973	         21.89936895	          1.72875862	          0.02489209	          0.50661992	          3.39150465	          0.17557933	         -9.67115276	         -3.86812572	          9.85899045	        -16.46444113	          8.95275891	         32.05105037	         -2.31272639	          3.41763207	         -2.46620843	          0.06174406	          0.10972722	          0.01000000	          0.09245058	          0.06016928	          0.03829593	          0.04164864	          0.03703995	          0.02405298	          0.01000001	          0.01418582	          0.01000002	          0.01000001	          0.36255833	          0.12904447	          0.00999999	          0.01000000	          0.03271698	          0.03713462	          0.01567982	          0.05497887	          0.02314728	          0.17240515	          0.01000003	          0.01000001	          0.14241081	          0.16909712	          0.00999999	
          1.41121767	         -5.61401500	         -4.14136117	         10.35593125	          1.34116532	          0.87775727	         -0.01306208	         21.15363435	          2.03248671	          0.94197493	          0.22197421	          3.10899741	          0.16357464	         -9.28699774	         -3.61489341	          8.77286501	        -18.94724520	          7.81406636	         33.28100465	         -2.06808749	          3.78436256	         -2.67277641	          0.05476963	          0.08964622	          0.01000000	          0.11205118	          0.06166532	          0.04172407	          0.03402666	          0.03049705	          0.01965108	          0.01000001	          0.01397938	          0.01000002	          0.01000001	          0.36587706	          0.13773975	          0.01000000	          0.01000000	          0.02672950	          0.04629565	          0.02103914	          0.04491730	          0.01891114	          0.15698656	          0.01000001	          0.01000000	          0.11634844	          0.13815092	          0.00999999	
